# xmcd CD database file
#
# Track frame offsets:
#	150
#	19389
#	35409
#	47461
#	64837
#	74707
#	93625
#	109977
#	118986
#	134768
#	150877
#	164269
#	169920
#	182905
#	201841
#	215131
#
# Disc length: 3182 seconds
#
# Revision: 5
# Processed by: cddbd v1.5.2PL0 Copyright (c) Steve Scherf et al.
# Submitted via: CDex 1.51
#
DISCID=f80c6c10
DTITLE=The Daydream - Little Comfort
DYEAR=2004
DGENRE=New Age
TTITLE0=Little Comfort
TTITLE1=Moon River (H. Mancini)
TTITLE2=Waiting on the Rainy Street
TTITLE3=Memories of the Winter
TTITLE4=For Your Happiness
TTITLE5=Scent of a Morning
TTITLE6=Empty Room
TTITLE7=My Only Love
TTITLE8=Jasmine_??
TTITLE9=Pierrot
TTITLE10=Mystery
TTITLE11=Flower Dance
TTITLE12=Little Comfort (Piano Solo)
TTITLE13=Scent of a Morning (Piano and Guitar)
TTITLE14=Scent of a Morning (Piano Solo)
TTITLE15=How Great thou Art
EXTD=YEAR: 2004
EXTT0=
EXTT1=
EXTT2=
EXTT3=
EXTT4=
EXTT5=
EXTT6=
EXTT7=
EXTT8=
EXTT9=
EXTT10=
EXTT11=
EXTT12=
EXTT13=
EXTT14=
EXTT15=
PLAYORDER=
